<?xml version="1.0" encoding="utf-8"?>
<svg width="402" height="402" viewBox="0 0 402 402" fill="none" xmlns="http://www.w3.org/2000/svg">
<path d="M19.028 30.4749C18.1504 33.7378 16.622 62.0527 15.5083 92.9143C13.6983 150.093 14.7995 165.199 22.5058 179.769C25.4627 185.568 25.9843 192.171 25.1412 212.024C24.4051 235.933 24.1064 237.19 18.5929 242.575C11.8999 249.061 10.3246 257.619 14.4643 265.737C16.2476 268.963 16.2965 271.118 14.8731 271.956C7.90564 275.52 3.04742 280.295 1.20676 285.678C-1.59693 293.181 1.83269 303.428 8.36791 308.334C12.934 311.654 12.9158 312.16 9.58456 316.733C7.46027 319.448 5.89086 324.333 5.90325 327.5C5.7787 334.46 12.3843 344.434 18.261 346.532C21.6443 347.533 22.001 348.178 20.2973 349.767C16.4966 353.311 14.1259 362.855 15.8179 368.611C17.7172 375.64 22.2285 380.478 28.855 382.855C31.7324 383.838 61.0603 385.335 93.9574 386.192C154.177 387.971 164.342 387.048 180.206 379.099C185.619 376.496 193.367 375.871 211.835 376.494C235.363 377.288 236.74 377.715 242.245 383.093C249.092 389.909 257.656 391.211 265.654 387.175C268.885 385.385 271.04 385.331 271.875 386.752C275.423 393.71 280.188 398.557 285.568 400.385C293.066 403.17 303.322 399.717 308.244 393.172C311.575 388.599 312.081 388.616 316.647 391.936C319.357 394.054 324.24 395.611 327.407 395.592C334.247 395.569 344.36 389.072 346.331 383.567C347.471 380.06 348.23 380.085 354.061 383.448C364.851 389.764 378.591 384.529 382.824 372.515C383.815 369.636 385.38 340.309 386.313 307.415C388.233 247.201 387.333 237.04 379.42 221.197C376.829 215.791 376.221 208.045 376.888 189.579C377.737 166.053 378.166 164.675 383.558 159.158C390.391 152.297 391.695 144.237 387.583 135.36C385.358 130.346 385.516 129.465 388.588 128.556C403.295 124.62 406.497 102.567 393.792 93.1465C389.226 89.8265 389.244 89.3206 392.576 84.7475C394.7 82.0332 396.269 77.1474 396.257 73.9811C396.381 67.0203 389.776 57.0464 383.899 54.9484C380.516 53.9478 380.159 53.3026 381.863 51.7138C385.664 48.1697 388.034 38.6253 386.342 32.8696C384.443 25.8405 379.932 21.0027 373.305 18.6262C370.428 17.6426 341.1 16.1461 308.203 15.2889C247.983 13.5095 237.818 14.4327 221.954 22.3818C216.541 24.985 208.793 25.6099 190.325 24.9866C166.798 24.1924 165.42 23.766 159.915 18.3881C153.069 11.5719 144.504 10.2697 136.506 14.3054C133.275 16.0958 131.12 16.1497 130.285 14.7285C122.024 -2.013 103.769 -5.03528 93.7757 8.68397C90.4537 13.0041 89.9386 13.24 87.1342 10.2327C79.6966 2.25684 61.9454 6.34315 56.4931 17.0498C54.436 21.4126 53.9301 21.3956 47.9771 17.9021C36.69 11.3159 22.4074 17.5455 19.028 30.4749ZM39.1109 24.9477C40.5069 24.8681 43.4879 26.4884 45.4388 28.5804C48.365 31.7185 48.9505 36.5504 48.6558 51.7368C48.5254 62.3698 48.8247 71.6243 49.6782 72.5396C51.2632 74.2393 58.4687 74.6092 60.3035 72.8982C60.9588 72.2872 62.1559 60.1705 62.9201 46.0131C63.6843 31.8557 65.1435 19.4946 66.192 18.5169C69.7305 15.2172 78.3228 15.7605 81.8588 19.5523C84.5412 22.4288 85.081 28.5256 84.3781 48.0038C83.657 67.9879 84.1114 72.9421 86.8395 74.5538C88.8269 75.634 91.8627 75.7364 93.6701 74.7844C96.6296 73.4913 97.4766 67.568 98.4201 44.932C99.5129 21.6679 100.351 15.9975 103.496 13.0644C108.476 8.42037 112.524 8.55703 117.157 13.5256C120.205 16.7944 120.642 22.2544 119.933 45.4049C119.629 60.8442 119.782 74.1462 120.514 74.9307C122.221 76.7612 129.304 77.0003 131.27 75.1671C132.057 74.4339 133.086 63.4513 133.795 50.8116C134.785 26.9108 136.598 22.2865 145.34 22.2017C155.608 21.9151 156.099 25.8574 153.89 87.0746C152.74 118.948 152.4 145.91 153.254 146.825C154.107 147.741 159.149 148.417 164.47 148.344C169.914 148.401 174.712 148.816 175.199 149.339C175.687 149.862 174.502 154.634 172.408 160.009C168.193 171.517 159.778 180.098 148.858 184.414L141.412 187.202L140.462 213.511L139.513 239.819L87.0233 237.92L34.5244 236.275L35.3245 210.595C35.9876 188.709 35.4204 183.371 31.6556 175.393C29.1773 170.37 26.4062 162.932 25.5312 159.103C23.6957 150.303 26.9409 35.8075 29.2693 30.9472C31.046 27.3348 34.1549 25.4136 39.1109 24.9477ZM191.478 35.1564C212.607 35.7429 217.057 35.26 226.965 30.9089C233.269 28.209 242.617 25.3587 247.835 24.6484C253.053 23.9381 282.932 24.1869 314.049 25.2373C358.95 26.8795 371.449 27.9346 374.01 30.6804C378.399 35.3875 378.217 40.4468 373.63 44.7242C370.484 47.6573 365.65 48.2539 350.462 47.9945C339.828 47.8888 330.571 48.2095 329.654 49.065C327.95 50.6537 327.563 57.8589 329.27 59.6895C329.88 60.3432 341.996 61.512 356.154 62.2432C370.312 62.9744 382.671 64.4047 383.769 65.5815C387.305 69.3733 385.9 80.2165 381.639 82.4788C379.579 83.4223 367.024 83.885 353.738 83.5631C334.127 83.0278 329.171 83.4937 327.553 86.225C326.468 88.2146 326.358 91.2502 327.306 93.0551C328.593 96.0111 334.515 96.8442 357.153 97.735C380.418 98.7736 386.087 99.5981 389.014 102.736C393.647 107.705 393.501 111.752 388.521 116.396C385.244 119.452 379.782 119.9 356.63 119.245C341.067 118.847 327.884 119.162 327.098 119.895C325.263 121.606 325.007 128.689 326.836 130.65C327.568 131.435 338.55 132.438 351.19 133.118C375.092 134.052 380.585 136.263 380.153 144.733C379.787 154.852 375.843 155.352 314.874 153.294C282.876 152.087 256.032 151.941 255.377 152.552C254.591 153.285 253.771 158.45 253.701 163.893C253.632 169.336 253.074 174.256 252.55 174.744C252.026 175.233 247.256 174.059 241.885 171.978C230.385 167.791 221.822 159.397 217.53 148.488L214.759 141.05L188.448 140.162L162.138 139.274L164.009 87.4162C165.041 58.8313 166.143 35.3142 166.536 34.9476C166.798 34.7032 178.07 34.7037 191.478 35.1564ZM87.286 248.187C119.162 249.263 146.128 249.54 146.783 248.929C147.569 248.195 148.389 243.031 148.459 237.588C148.528 232.145 149.086 227.225 149.61 226.736C150.134 226.247 154.905 227.422 160.275 229.502C171.776 233.69 180.338 242.083 184.63 252.992L187.401 260.431L213.712 261.319L240.022 262.207L238.001 314.693L236.234 367.187L210.551 366.447C188.532 365.957 183.323 366.414 175.457 370.327C170.306 372.686 161.848 375.44 156.743 376.534C151.515 377.497 121.252 377.362 89.3756 376.286C43.4636 374.61 30.8417 373.424 28.2812 370.678C23.7608 366.093 23.9434 361.034 28.5303 356.757C31.6757 353.824 36.5098 353.227 51.698 353.486C62.3324 353.592 71.5892 353.271 72.5066 352.416C74.2103 350.827 74.5969 343.622 72.89 341.791C72.2803 341.138 60.1645 339.969 46.0065 339.238C31.8485 338.506 19.4888 337.076 18.5133 336.03C15.2213 332.5 15.7846 323.908 19.5853 320.363C22.4685 317.675 28.5675 317.121 48.0473 317.778C68.0331 318.453 72.9891 317.987 74.6074 315.256C75.6924 313.266 75.8019 310.231 74.8539 308.426C73.5674 305.47 67.6451 304.637 45.0076 303.746C21.7422 302.707 16.0728 301.883 13.1466 298.745C8.5133 293.776 8.65937 289.729 13.6395 285.085C16.9159 282.029 22.3779 281.58 45.5305 282.235C60.9717 282.503 74.2762 282.319 75.0625 281.586C76.8973 279.875 77.1529 272.792 75.324 270.831C74.5924 270.046 63.7415 268.92 50.9704 268.362C27.0679 267.429 21.5753 265.217 22.0076 256.747C22.3727 246.629 26.3168 246.129 87.286 248.187ZM197.995 149.349L207.225 149.787L211.355 158.158C216.772 169.484 225.999 177.014 239.392 181.392C245.269 183.49 250.883 185.832 251.615 186.617C252.347 187.401 252.679 192.225 252.487 197.537L252.028 206.766L243.646 210.915C232.305 216.358 224.752 225.6 220.343 239.001C218.231 244.882 215.875 250.501 215.089 251.234C214.302 251.968 209.477 252.311 204.165 252.132L194.935 251.694L190.805 243.323C185.388 231.996 176.161 224.467 162.768 220.089C156.891 217.991 151.277 215.649 150.545 214.864C149.814 214.08 149.481 209.256 149.795 204.075L150.132 194.715L159.422 189.963C171.166 183.901 177.53 176.011 181.677 162.854C183.396 157.34 185.612 152.097 186.538 150.988C187.596 149.757 192.683 149.169 197.995 149.349ZM315.774 163.455L367.636 165.206L366.705 191.008C366.233 207.582 366.975 218.624 368.636 221.719C377.449 237.213 378.141 246.101 376.158 308.086C374.475 361.722 373.808 369.678 370.27 372.978C365.159 377.744 361.111 377.607 356.599 372.77C353.795 369.762 353.088 364.8 353.504 349.744C353.635 339.111 353.335 329.856 352.482 328.941C350.897 327.241 343.691 326.872 341.857 328.582C341.201 329.194 340.004 341.31 339.24 355.468C338.476 369.625 337.017 381.986 335.837 383.086C332.036 386.63 321.195 385.251 318.942 380.996C318.003 378.938 317.569 366.387 317.922 353.102C318.503 333.493 318.049 328.539 315.321 326.927C313.333 325.847 310.297 325.744 308.49 326.696C305.531 327.989 304.684 333.913 303.74 356.549C302.638 380.066 301.809 385.483 298.533 388.539C293.815 392.938 288.886 392.645 284.497 387.938C282.18 385.454 281.451 377.578 282.218 356.329C282.653 340.767 282.378 327.335 281.646 326.55C279.939 324.72 272.856 324.48 270.89 326.314C270.104 327.047 269.074 338.029 268.365 350.669C267.376 374.57 265.151 380.067 256.68 379.654C246.561 379.313 246.07 375.37 248.27 314.406C249.551 282.41 249.76 255.571 248.906 254.655C248.053 253.74 243.012 253.063 237.69 253.137C232.246 253.08 227.448 252.665 226.961 252.142C226.473 251.619 227.658 246.847 229.752 241.472C233.967 229.964 242.382 221.383 253.302 217.066L260.748 214.278L261.549 188.598C262.182 174.563 262.864 162.682 263.257 162.316C263.65 161.949 287.187 162.49 315.774 163.455Z" fill="black"/>
</svg>
