<svg width="300" height="300" viewBox="0 0 300 300" fill="none" xmlns="http://www.w3.org/2000/svg">
<path d="M73.1894 78.1206C72.8212 79.4894 72.1801 91.3674 71.7129 104.314C70.9536 128.3 71.4156 134.637 74.6483 140.749C75.8887 143.182 76.1075 145.952 75.7539 154.28C75.4451 164.31 75.3198 164.837 73.0069 167.096C70.1992 169.817 69.5384 173.407 71.2749 176.813C72.023 178.166 72.0435 179.07 71.4464 179.421C68.5236 180.916 66.4856 182.919 65.7134 185.178C64.5373 188.325 65.976 192.624 68.7175 194.682C70.633 196.075 70.6253 196.287 69.2279 198.205C68.3368 199.344 67.6784 201.394 67.6836 202.722C67.6314 205.642 70.4024 209.826 72.8676 210.706C74.2869 211.126 74.4366 211.396 73.7219 212.063C72.1275 213.55 71.133 217.553 71.8428 219.968C72.6395 222.917 74.532 224.946 77.3118 225.943C78.5189 226.356 90.8219 226.983 104.622 227.343C129.884 228.09 134.148 227.702 140.803 224.368C143.074 223.276 146.324 223.013 154.072 223.275C163.941 223.608 164.519 223.787 166.829 226.043C169.701 228.902 173.294 229.449 176.649 227.756C178.004 227.005 178.908 226.982 179.258 227.578C180.747 230.497 182.745 232.53 185.002 233.297C188.148 234.466 192.45 233.017 194.515 230.271C195.912 228.353 196.125 228.36 198.04 229.753C199.177 230.641 201.225 231.295 202.554 231.286C205.423 231.277 209.665 228.551 210.492 226.242C210.971 224.771 211.289 224.781 213.735 226.192C218.262 228.842 224.025 226.646 225.801 221.606C226.217 220.398 226.873 208.095 227.265 194.296C228.07 169.037 227.693 164.774 224.373 158.128C223.286 155.86 223.031 152.611 223.311 144.864C223.667 134.995 223.847 134.417 226.109 132.103C228.975 129.225 229.522 125.843 227.797 122.12C226.864 120.016 226.93 119.647 228.219 119.265C234.388 117.614 235.732 108.363 230.402 104.411C228.487 103.018 228.494 102.806 229.892 100.888C230.783 99.7492 231.441 97.6996 231.436 96.3713C231.488 93.4513 228.717 89.2672 226.252 88.3872C224.833 87.9674 224.683 87.6967 225.398 87.0303C226.992 85.5435 227.987 81.5397 227.277 79.1252C226.48 76.1765 224.588 74.147 221.808 73.1501C220.601 72.7375 208.298 72.1097 194.498 71.7501C169.236 71.0036 164.971 71.3909 158.316 74.7255C156.046 75.8176 152.795 76.0797 145.048 75.8182C135.178 75.4851 134.6 75.3062 132.291 73.0502C129.419 70.1908 125.826 69.6445 122.471 71.3375C121.116 72.0886 120.212 72.1112 119.861 71.515C116.396 64.492 108.738 63.2241 104.546 68.9793C103.152 70.7916 102.936 70.8906 101.76 69.629C98.6398 66.2832 91.1931 67.9974 88.9059 72.4888C88.043 74.319 87.8307 74.3118 85.3335 72.8463C80.5985 70.0834 74.6071 72.6967 73.1894 78.1206ZM81.6141 75.8019C82.1997 75.7686 83.4503 76.4482 84.2687 77.3258C85.4962 78.6422 85.7418 80.6692 85.6182 87.0399C85.5635 91.5004 85.689 95.3827 86.0471 95.7666C86.712 96.4797 89.7347 96.6348 90.5044 95.9171C90.7793 95.6607 91.2815 90.5778 91.602 84.6388C91.9226 78.6998 92.5347 73.5144 92.9746 73.1042C94.459 71.72 98.0634 71.9479 99.5467 73.5386C100.672 74.7453 100.898 77.3028 100.604 85.4739C100.301 93.8572 100.492 95.9355 101.636 96.6116C102.47 97.0647 103.743 97.1077 104.502 96.7083C105.743 96.1658 106.098 93.681 106.494 84.1853C106.953 74.426 107.304 72.0473 108.624 70.8169C110.713 68.8687 112.411 68.9261 114.354 71.0104C115.633 72.3816 115.816 74.6721 115.519 84.3837C115.391 90.8604 115.456 96.4406 115.762 96.7697C116.479 97.5376 119.45 97.6379 120.275 96.8689C120.605 96.5613 121.037 91.9541 121.334 86.6518C121.749 76.6255 122.51 74.6856 126.177 74.65C130.484 74.5298 130.69 76.1835 129.764 101.864C129.281 115.235 129.139 126.545 129.497 126.929C129.855 127.313 131.97 127.597 134.202 127.566C136.486 127.59 138.498 127.764 138.703 127.984C138.908 128.203 138.41 130.205 137.532 132.46C135.764 137.287 132.234 140.887 127.653 142.698L124.529 143.867L124.131 154.904L123.733 165.94L101.713 165.143L79.6901 164.453L80.0257 153.68C80.3039 144.499 80.066 142.26 78.4866 138.913C77.447 136.806 76.2845 133.686 75.9175 132.08C75.1475 128.388 76.5088 80.3576 77.4856 78.3187C78.2309 76.8033 79.5351 75.9973 81.6141 75.8019ZM145.532 80.0844C154.395 80.3305 156.262 80.1279 160.419 78.3026C163.063 77.1701 166.984 75.9743 169.173 75.6764C171.362 75.3784 183.897 75.4828 196.95 75.9234C215.786 76.6123 221.029 77.0549 222.104 78.2068C223.945 80.1814 223.868 82.3038 221.944 84.0981C220.625 85.3285 218.597 85.5788 212.225 85.47C207.764 85.4257 203.881 85.5602 203.496 85.9191C202.781 86.5856 202.619 89.6081 203.335 90.376C203.591 90.6503 208.674 91.1406 214.613 91.4473C220.552 91.754 225.737 92.354 226.197 92.8477C227.681 94.4384 227.091 98.9871 225.304 99.9361C224.44 100.332 219.173 100.526 213.599 100.391C205.373 100.166 203.294 100.362 202.615 101.508C202.16 102.342 202.114 103.616 202.511 104.373C203.051 105.613 205.535 105.962 215.032 106.336C224.792 106.772 227.17 107.118 228.398 108.434C230.341 110.518 230.28 112.216 228.191 114.164C226.816 115.446 224.525 115.634 214.813 115.36C208.284 115.192 202.754 115.324 202.424 115.632C201.654 116.35 201.547 119.321 202.314 120.144C202.621 120.473 207.228 120.894 212.531 121.179C222.558 121.571 224.862 122.499 224.68 126.052C224.527 130.297 222.873 130.506 197.296 129.643C183.873 129.137 172.612 129.075 172.337 129.332C172.007 129.639 171.664 131.806 171.634 134.089C171.605 136.372 171.371 138.436 171.151 138.641C170.931 138.846 168.93 138.354 166.677 137.481C161.853 135.724 158.261 132.203 156.461 127.627L155.298 124.507L144.261 124.134L133.224 123.761L134.009 102.007C134.442 90.016 134.904 80.1507 135.069 79.9969C135.179 79.8943 139.907 79.8946 145.532 80.0844ZM101.823 169.45C115.195 169.902 126.507 170.018 126.782 169.761C127.112 169.454 127.456 167.287 127.485 165.004C127.515 162.721 127.748 160.657 127.968 160.452C128.188 160.247 130.189 160.739 132.442 161.612C137.267 163.369 140.859 166.89 142.659 171.466L143.822 174.587L154.859 174.959L165.896 175.332L165.048 197.349L164.307 219.371L153.533 219.06C144.296 218.854 142.111 219.046 138.811 220.688C136.65 221.677 133.102 222.833 130.96 223.292C128.768 223.696 116.072 223.639 102.7 223.188C83.4401 222.484 78.1452 221.987 77.0711 220.835C75.1748 218.912 75.2514 216.789 77.1756 214.995C78.4951 213.765 80.523 213.514 86.8944 213.623C91.3555 213.667 95.2387 213.533 95.6235 213.174C96.3383 212.508 96.5005 209.485 95.7844 208.717C95.5286 208.443 90.4461 207.953 84.5068 207.646C78.5676 207.339 73.3827 206.739 72.9735 206.3C71.5925 204.819 71.8288 201.215 73.4232 199.728C74.6327 198.6 77.1912 198.368 85.3629 198.644C93.7469 198.927 95.826 198.731 96.5048 197.585C96.96 196.751 97.0059 195.477 96.6082 194.72C96.0686 193.48 93.5842 193.131 84.0878 192.757C74.328 192.321 71.9497 191.976 70.7222 190.659C68.7785 188.575 68.8398 186.877 70.9289 184.929C72.3034 183.647 74.5947 183.459 84.3072 183.734C90.7847 183.846 96.3659 183.769 96.6958 183.461C97.4655 182.743 97.5727 179.772 96.8054 178.949C96.4986 178.62 91.9466 178.148 86.5891 177.914C76.5621 177.522 74.258 176.594 74.4393 173.041C74.5925 168.797 76.247 168.587 101.823 169.45ZM148.266 127.988L152.138 128.172L153.87 131.683C156.143 136.435 160.013 139.593 165.632 141.43C168.097 142.31 170.452 143.293 170.759 143.622C171.066 143.951 171.206 145.974 171.125 148.203L170.932 152.074L167.416 153.815C162.659 156.098 159.49 159.975 157.64 165.597C156.755 168.064 155.766 170.421 155.436 170.729C155.107 171.036 153.083 171.18 150.854 171.105L146.982 170.921L145.249 167.41C142.977 162.658 139.106 159.5 133.488 157.663C131.023 156.783 128.667 155.801 128.361 155.471C128.054 155.142 127.914 153.119 128.046 150.945L128.187 147.019L132.085 145.026C137.011 142.483 139.681 139.173 141.42 133.654C142.141 131.34 143.071 129.141 143.46 128.676C143.903 128.159 146.037 127.913 148.266 127.988ZM197.674 133.906L219.43 134.64L219.039 145.464C218.841 152.416 219.152 157.049 219.849 158.347C223.546 164.847 223.837 168.575 223.004 194.578C222.299 217.078 222.019 220.416 220.535 221.8C218.39 223.799 216.692 223.742 214.8 221.712C213.623 220.451 213.327 218.369 213.501 212.053C213.556 207.593 213.431 203.71 213.073 203.327C212.408 202.613 209.385 202.458 208.615 203.176C208.34 203.432 207.838 208.515 207.518 214.454C207.197 220.393 206.585 225.579 206.09 226.04C204.496 227.527 199.948 226.948 199.003 225.163C198.609 224.3 198.427 219.035 198.575 213.462C198.819 205.236 198.628 203.158 197.484 202.482C196.65 202.028 195.376 201.985 194.618 202.385C193.377 202.927 193.021 205.412 192.625 214.908C192.163 224.773 191.816 227.046 190.441 228.327C188.462 230.173 186.394 230.05 184.553 228.076C183.581 227.033 183.275 223.729 183.597 214.816C183.78 208.288 183.664 202.653 183.357 202.323C182.641 201.556 179.67 201.455 178.845 202.224C178.515 202.532 178.083 207.139 177.786 212.441C177.371 222.468 176.437 224.774 172.884 224.601C168.639 224.457 168.433 222.803 169.356 197.229C169.893 183.807 169.981 172.548 169.623 172.164C169.265 171.78 167.15 171.496 164.918 171.527C162.634 171.503 160.621 171.329 160.417 171.109C160.212 170.89 160.709 168.888 161.588 166.633C163.356 161.806 166.886 158.206 171.467 156.395L174.591 155.226L174.926 144.453C175.192 138.565 175.478 133.581 175.643 133.427C175.808 133.274 185.681 133.501 197.674 133.906Z" fill="black"/>
<path d="M73.1894 78.1206C72.8212 79.4894 72.1801 91.3674 71.7129 104.314C70.9536 128.3 71.4156 134.637 74.6483 140.749C75.8887 143.182 76.1075 145.952 75.7539 154.28C75.4451 164.31 75.3198 164.837 73.0069 167.096C70.1992 169.817 69.5384 173.407 71.2749 176.813C72.023 178.166 72.0435 179.07 71.4464 179.421C68.5236 180.916 66.4856 182.919 65.7134 185.178C64.5373 188.325 65.976 192.624 68.7175 194.682C70.633 196.075 70.6253 196.287 69.2279 198.205C68.3368 199.344 67.6784 201.394 67.6836 202.722C67.6314 205.642 70.4024 209.826 72.8676 210.706C74.2869 211.126 74.4366 211.396 73.7219 212.063C72.1275 213.55 71.133 217.553 71.8428 219.968C72.6395 222.917 74.532 224.946 77.3118 225.943C78.5189 226.356 90.8219 226.983 104.622 227.343C129.884 228.09 134.148 227.702 140.803 224.368C143.074 223.276 146.324 223.013 154.072 223.275C163.941 223.608 164.519 223.787 166.829 226.043C169.701 228.902 173.294 229.449 176.649 227.756C178.004 227.005 178.908 226.982 179.258 227.578C180.747 230.497 182.745 232.53 185.002 233.297C188.148 234.466 192.45 233.017 194.515 230.271C195.912 228.353 196.125 228.36 198.04 229.753C199.177 230.641 201.225 231.295 202.554 231.286C205.423 231.277 209.665 228.551 210.492 226.242C210.971 224.771 211.289 224.781 213.735 226.192C218.262 228.842 224.025 226.646 225.801 221.606C226.217 220.398 226.873 208.095 227.265 194.296C228.07 169.037 227.693 164.774 224.373 158.128C223.286 155.86 223.031 152.611 223.311 144.864C223.667 134.995 223.847 134.417 226.109 132.103C228.975 129.225 229.522 125.843 227.797 122.12C226.864 120.016 226.93 119.647 228.219 119.265C234.388 117.614 235.732 108.363 230.402 104.411C228.487 103.018 228.494 102.806 229.892 100.888C230.783 99.7492 231.441 97.6996 231.436 96.3713C231.488 93.4513 228.717 89.2672 226.252 88.3872C224.833 87.9674 224.683 87.6967 225.398 87.0303C226.992 85.5435 227.987 81.5397 227.277 79.1252C226.48 76.1765 224.588 74.147 221.808 73.1501C220.601 72.7375 208.298 72.1097 194.498 71.7501C169.236 71.0036 164.971 71.3909 158.316 74.7255C156.046 75.8176 152.795 76.0797 145.048 75.8182C135.178 75.4851 134.6 75.3062 132.291 73.0502C129.419 70.1908 125.826 69.6445 122.471 71.3375C121.116 72.0886 120.212 72.1112 119.861 71.515C116.396 64.492 108.738 63.2241 104.546 68.9793C103.152 70.7916 102.936 70.8906 101.76 69.629C98.6398 66.2832 91.1931 67.9974 88.9059 72.4888C88.043 74.319 87.8307 74.3118 85.3335 72.8463C80.5985 70.0834 74.6071 72.6967 73.1894 78.1206ZM81.6141 75.8019C82.1997 75.7686 83.4503 76.4482 84.2687 77.3258C85.4962 78.6422 85.7418 80.6692 85.6182 87.0399C85.5635 91.5004 85.689 95.3827 86.0471 95.7666C86.712 96.4797 89.7347 96.6348 90.5044 95.9171C90.7793 95.6607 91.2815 90.5778 91.602 84.6388C91.9226 78.6998 92.5347 73.5144 92.9746 73.1042C94.459 71.72 98.0634 71.9479 99.5467 73.5386C100.672 74.7453 100.898 77.3028 100.604 85.4739C100.301 93.8572 100.492 95.9355 101.636 96.6116C102.47 97.0647 103.743 97.1077 104.502 96.7083C105.743 96.1658 106.098 93.681 106.494 84.1853C106.953 74.426 107.304 72.0473 108.624 70.8169C110.713 68.8687 112.411 68.9261 114.354 71.0104C115.633 72.3816 115.816 74.6721 115.519 84.3837C115.391 90.8604 115.456 96.4406 115.762 96.7697C116.479 97.5376 119.45 97.6379 120.275 96.8689C120.605 96.5613 121.037 91.9541 121.334 86.6518C121.749 76.6255 122.51 74.6856 126.177 74.65C130.484 74.5298 130.69 76.1835 129.764 101.864C129.281 115.235 129.139 126.545 129.497 126.929C129.855 127.313 131.97 127.597 134.202 127.566C136.486 127.59 138.498 127.764 138.703 127.984C138.908 128.203 138.41 130.205 137.532 132.46C135.764 137.287 132.234 140.887 127.653 142.698L124.529 143.867L124.131 154.904L123.733 165.94L101.713 165.143L79.6901 164.453L80.0257 153.68C80.3039 144.499 80.066 142.26 78.4866 138.913C77.447 136.806 76.2845 133.686 75.9175 132.08C75.1475 128.388 76.5088 80.3576 77.4856 78.3187C78.2309 76.8033 79.5351 75.9973 81.6141 75.8019ZM145.532 80.0844C154.395 80.3305 156.262 80.1279 160.419 78.3026C163.063 77.1701 166.984 75.9743 169.173 75.6764C171.362 75.3784 183.897 75.4828 196.95 75.9234C215.786 76.6123 221.029 77.0549 222.104 78.2068C223.945 80.1814 223.868 82.3038 221.944 84.0981C220.625 85.3285 218.597 85.5788 212.225 85.47C207.764 85.4257 203.881 85.5602 203.496 85.9191C202.781 86.5856 202.619 89.6081 203.335 90.376C203.591 90.6503 208.674 91.1406 214.613 91.4473C220.552 91.754 225.737 92.354 226.197 92.8477C227.681 94.4384 227.091 98.9871 225.304 99.9361C224.44 100.332 219.173 100.526 213.599 100.391C205.373 100.166 203.294 100.362 202.615 101.508C202.16 102.342 202.114 103.616 202.511 104.373C203.051 105.613 205.535 105.962 215.032 106.336C224.792 106.772 227.17 107.118 228.398 108.434C230.341 110.518 230.28 112.216 228.191 114.164C226.816 115.446 224.525 115.634 214.813 115.36C208.284 115.192 202.754 115.324 202.424 115.632C201.654 116.35 201.547 119.321 202.314 120.144C202.621 120.473 207.228 120.894 212.531 121.179C222.558 121.571 224.862 122.499 224.68 126.052C224.527 130.297 222.873 130.506 197.296 129.643C183.873 129.137 172.612 129.075 172.337 129.332C172.007 129.639 171.664 131.806 171.634 134.089C171.605 136.372 171.371 138.436 171.151 138.641C170.931 138.846 168.93 138.354 166.677 137.481C161.853 135.724 158.261 132.203 156.461 127.627L155.298 124.507L144.261 124.134L133.224 123.761L134.009 102.007C134.442 90.016 134.904 80.1507 135.069 79.9969C135.179 79.8943 139.907 79.8946 145.532 80.0844ZM101.823 169.45C115.195 169.902 126.507 170.018 126.782 169.761C127.112 169.454 127.456 167.287 127.485 165.004C127.515 162.721 127.748 160.657 127.968 160.452C128.188 160.247 130.189 160.739 132.442 161.612C137.267 163.369 140.859 166.89 142.659 171.466L143.822 174.587L154.859 174.959L165.896 175.332L165.048 197.349L164.307 219.371L153.533 219.06C144.296 218.854 142.111 219.046 138.811 220.688C136.65 221.677 133.102 222.833 130.96 223.292C128.768 223.696 116.072 223.639 102.7 223.188C83.4401 222.484 78.1452 221.987 77.0711 220.835C75.1748 218.912 75.2514 216.789 77.1756 214.995C78.4951 213.765 80.523 213.514 86.8944 213.623C91.3555 213.667 95.2387 213.533 95.6235 213.174C96.3383 212.508 96.5005 209.485 95.7844 208.717C95.5286 208.443 90.4461 207.953 84.5068 207.646C78.5676 207.339 73.3827 206.739 72.9735 206.3C71.5925 204.819 71.8288 201.215 73.4232 199.728C74.6327 198.6 77.1912 198.368 85.3629 198.644C93.7469 198.927 95.826 198.731 96.5048 197.585C96.96 196.751 97.0059 195.477 96.6082 194.72C96.0686 193.48 93.5842 193.131 84.0878 192.757C74.328 192.321 71.9497 191.976 70.7222 190.659C68.7785 188.575 68.8398 186.877 70.9289 184.929C72.3034 183.647 74.5947 183.459 84.3072 183.734C90.7847 183.846 96.3659 183.769 96.6958 183.461C97.4655 182.743 97.5727 179.772 96.8054 178.949C96.4986 178.62 91.9466 178.148 86.5891 177.914C76.5621 177.522 74.258 176.594 74.4393 173.041C74.5925 168.797 76.247 168.587 101.823 169.45ZM148.266 127.988L152.138 128.172L153.87 131.683C156.143 136.435 160.013 139.593 165.632 141.43C168.097 142.31 170.452 143.293 170.759 143.622C171.066 143.951 171.206 145.974 171.125 148.203L170.932 152.074L167.416 153.815C162.659 156.098 159.49 159.975 157.64 165.597C156.755 168.064 155.766 170.421 155.436 170.729C155.107 171.036 153.083 171.18 150.854 171.105L146.982 170.921L145.249 167.41C142.977 162.658 139.106 159.5 133.488 157.663C131.023 156.783 128.667 155.801 128.361 155.471C128.054 155.142 127.914 153.119 128.046 150.945L128.187 147.019L132.085 145.026C137.011 142.483 139.681 139.173 141.42 133.654C142.141 131.34 143.071 129.141 143.46 128.676C143.903 128.159 146.037 127.913 148.266 127.988ZM197.674 133.906L219.43 134.64L219.039 145.464C218.841 152.416 219.152 157.049 219.849 158.347C223.546 164.847 223.837 168.575 223.004 194.578C222.299 217.078 222.019 220.416 220.535 221.8C218.39 223.799 216.692 223.742 214.8 221.712C213.623 220.451 213.327 218.369 213.501 212.053C213.556 207.593 213.431 203.71 213.073 203.327C212.408 202.613 209.385 202.458 208.615 203.176C208.34 203.432 207.838 208.515 207.518 214.454C207.197 220.393 206.585 225.579 206.09 226.04C204.496 227.527 199.948 226.948 199.003 225.163C198.609 224.3 198.427 219.035 198.575 213.462C198.819 205.236 198.628 203.158 197.484 202.482C196.65 202.028 195.376 201.985 194.618 202.385C193.377 202.927 193.021 205.412 192.625 214.908C192.163 224.773 191.816 227.046 190.441 228.327C188.462 230.173 186.394 230.05 184.553 228.076C183.581 227.033 183.275 223.729 183.597 214.816C183.78 208.288 183.664 202.653 183.357 202.323C182.641 201.556 179.67 201.455 178.845 202.224C178.515 202.532 178.083 207.139 177.786 212.441C177.371 222.468 176.437 224.774 172.884 224.601C168.639 224.457 168.433 222.803 169.356 197.229C169.893 183.807 169.981 172.548 169.623 172.164C169.265 171.78 167.15 171.496 164.918 171.527C162.634 171.503 160.621 171.329 160.417 171.109C160.212 170.89 160.709 168.888 161.588 166.633C163.356 161.806 166.886 158.206 171.467 156.395L174.591 155.226L174.926 144.453C175.192 138.565 175.478 133.581 175.643 133.427C175.808 133.274 185.681 133.501 197.674 133.906Z" fill="black"/>
</svg>
