<svg width="301" height="300" viewBox="0 0 301 300" fill="none" xmlns="http://www.w3.org/2000/svg">
<path d="M74.0776 78.4155C73.7094 79.7843 73.0683 91.6623 72.6011 104.609C71.8418 128.595 72.3038 134.932 75.5365 141.044C76.7769 143.477 76.9957 146.246 76.6421 154.575C76.3333 164.605 76.208 165.132 73.8951 167.391C71.0874 170.112 70.4265 173.702 72.1631 177.107C72.9112 178.461 72.9317 179.365 72.3346 179.716C69.4118 181.211 67.3738 183.214 66.6016 185.473C65.4255 188.62 66.8642 192.919 69.6057 194.977C71.5212 196.37 71.5135 196.582 70.1161 198.5C69.225 199.639 68.5666 201.688 68.5718 203.017C68.5195 205.937 71.2906 210.121 73.7558 211.001C75.1751 211.421 75.3247 211.691 74.61 212.358C73.0157 213.845 72.0211 217.848 72.7309 220.263C73.5277 223.212 75.4202 225.241 78.2 226.238C79.407 226.651 91.71 227.278 105.51 227.638C130.772 228.384 135.036 227.997 141.691 224.663C143.962 223.57 147.212 223.308 154.96 223.57C164.829 223.903 165.407 224.082 167.717 226.338C170.589 229.197 174.182 229.744 177.537 228.051C178.892 227.299 179.796 227.277 180.146 227.873C181.635 230.792 183.634 232.825 185.89 233.592C189.036 234.76 193.338 233.312 195.403 230.566C196.801 228.648 197.013 228.655 198.928 230.048C200.065 230.936 202.113 231.589 203.442 231.581C206.311 231.572 210.554 228.846 211.381 226.537C211.859 225.065 212.177 225.076 214.623 226.487C219.15 229.137 224.914 226.941 226.689 221.901C227.105 220.693 227.761 208.39 228.153 194.591C228.958 169.332 228.581 165.069 225.261 158.423C224.174 156.155 223.919 152.906 224.199 145.159C224.555 135.29 224.735 134.712 226.997 132.398C229.864 129.52 230.411 126.138 228.686 122.415C227.752 120.311 227.819 119.942 229.107 119.56C235.277 117.909 236.62 108.658 231.29 104.706C229.375 103.313 229.383 103.101 230.78 101.183C231.671 100.044 232.329 97.9945 232.324 96.6662C232.377 93.7462 229.605 89.5622 227.14 88.6821C225.721 88.2623 225.571 87.9917 226.286 87.3252C227.88 85.8384 228.875 81.8346 228.165 79.4201C227.368 76.4714 225.476 74.4419 222.696 73.445C221.489 73.0324 209.186 72.4046 195.386 72.045C170.124 71.2985 165.86 71.6858 159.205 75.0204C156.934 76.1125 153.684 76.3747 145.936 76.1131C136.067 75.78 135.489 75.6011 133.179 73.3451C130.307 70.4857 126.714 69.9394 123.359 71.6324C122.004 72.3835 121.1 72.4061 120.75 71.8099C117.284 64.7869 109.626 63.5191 105.434 69.2742C104.04 71.0865 103.824 71.1855 102.648 69.9239C99.5279 66.5781 92.0813 68.2923 89.7941 72.7837C88.9312 74.6139 88.7189 74.6067 86.2217 73.1412C81.4867 70.3783 75.4952 72.9916 74.0776 78.4155ZM82.5023 76.0968C83.0879 76.0635 84.3385 76.7432 85.1568 77.6208C86.3844 78.9372 86.63 80.9642 86.5064 87.3348C86.4517 91.7953 86.5772 95.6776 86.9353 96.0615C87.6002 96.7746 90.6229 96.9297 91.3926 96.212C91.6675 95.9557 92.1696 90.8727 92.4902 84.9337C92.8108 78.9947 93.4229 73.8093 93.8627 73.3991C95.3472 72.0149 98.9516 72.2428 100.435 73.8335C101.56 75.0402 101.787 77.5978 101.492 85.7688C101.189 94.1521 101.38 96.2304 102.524 96.9065C103.358 97.3596 104.632 97.4026 105.39 97.0032C106.631 96.4608 106.987 93.976 107.382 84.4802C107.841 74.721 108.192 72.3423 109.512 71.1118C111.601 69.1637 113.299 69.221 115.243 71.3053C116.521 72.6765 116.704 74.967 116.407 84.6786C116.279 91.1554 116.344 96.7355 116.651 97.0646C117.367 97.8325 120.338 97.9328 121.163 97.1638C121.493 96.8562 121.925 92.249 122.222 86.9467C122.637 76.9204 123.398 74.9805 127.065 74.9449C131.373 74.8247 131.579 76.4785 130.652 102.159C130.169 115.53 130.027 126.84 130.385 127.224C130.743 127.608 132.858 127.892 135.09 127.861C137.374 127.885 139.387 128.059 139.591 128.279C139.796 128.498 139.298 130.5 138.42 132.755C136.652 137.582 133.122 141.182 128.541 142.993L125.417 144.162L125.019 155.199L124.621 166.235L102.601 165.438L80.5783 164.748L80.9139 153.975C81.1921 144.794 80.9541 142.555 79.3748 139.208C78.3352 137.101 77.1727 133.981 76.8056 132.375C76.0357 128.683 77.397 80.6525 78.3738 78.6136C79.1191 77.0982 80.4233 76.2923 82.5023 76.0968ZM146.42 80.3794C155.283 80.6254 157.15 80.4228 161.307 78.5976C163.951 77.465 167.872 76.2693 170.061 75.9713C172.25 75.6733 184.785 75.7777 197.838 76.2183C216.674 76.9072 221.918 77.3499 222.992 78.5017C224.833 80.4763 224.756 82.5987 222.832 84.393C221.513 85.6235 219.485 85.8738 213.113 85.7649C208.652 85.7206 204.769 85.8551 204.384 86.214C203.67 86.8805 203.507 89.903 204.223 90.6709C204.479 90.9452 209.562 91.4355 215.501 91.7422C221.44 92.049 226.625 92.649 227.086 93.1426C228.569 94.7333 227.98 99.282 226.192 100.231C225.328 100.627 220.061 100.821 214.488 100.686C206.261 100.461 204.182 100.657 203.503 101.803C203.048 102.637 203.002 103.911 203.4 104.668C203.939 105.908 206.424 106.257 215.92 106.631C225.68 107.067 228.058 107.413 229.286 108.729C231.229 110.813 231.168 112.511 229.079 114.459C227.704 115.741 225.413 115.929 215.701 115.655C209.172 115.487 203.642 115.619 203.312 115.927C202.542 116.645 202.435 119.616 203.202 120.439C203.509 120.768 208.116 121.189 213.419 121.474C223.446 121.866 225.75 122.794 225.569 126.347C225.415 130.591 223.761 130.801 198.184 129.938C184.761 129.432 173.5 129.37 173.226 129.627C172.896 129.934 172.552 132.101 172.523 134.384C172.493 136.667 172.259 138.731 172.04 138.936C171.82 139.141 169.819 138.649 167.566 137.776C162.741 136.019 159.149 132.498 157.349 127.922L156.186 124.802L145.149 124.429L134.112 124.056L134.897 102.302C135.33 90.3109 135.792 80.4456 135.957 80.2918C136.067 80.1893 140.795 80.1895 146.42 80.3794ZM102.712 169.745C116.084 170.197 127.396 170.313 127.671 170.056C128 169.749 128.344 167.582 128.373 165.299C128.403 163.016 128.637 160.952 128.856 160.747C129.076 160.542 131.077 161.034 133.33 161.907C138.155 163.664 141.747 167.185 143.547 171.761L144.71 174.881L155.747 175.254L166.784 175.627L165.936 197.644L165.195 219.665L154.421 219.355C145.184 219.149 142.999 219.341 139.699 220.983C137.538 221.972 133.99 223.128 131.849 223.587C129.656 223.991 116.96 223.934 103.588 223.483C84.3282 222.779 79.0334 222.282 77.9593 221.13C76.063 219.207 76.1396 217.084 78.0638 215.29C79.3833 214.06 81.4111 213.809 87.7826 213.918C92.2437 213.962 96.1269 213.828 96.5117 213.469C97.2264 212.802 97.3886 209.78 96.6726 209.012C96.4168 208.738 91.3342 208.247 85.395 207.941C79.4557 207.634 74.2709 207.034 73.8617 206.595C72.4807 205.114 72.717 201.51 74.3114 200.023C75.5209 198.895 78.0794 198.663 86.2511 198.939C94.6351 199.222 96.7141 199.026 97.393 197.88C97.8482 197.046 97.8941 195.772 97.4964 195.015C96.9568 193.775 94.4724 193.426 84.976 193.052C75.2162 192.616 72.8379 192.27 71.6103 190.954C69.6667 188.87 69.728 187.172 71.8171 185.224C73.1916 183.942 75.4829 183.754 85.1953 184.028C91.6729 184.141 97.2541 184.064 97.584 183.756C98.3536 183.038 98.4609 180.067 97.6936 179.244C97.3867 178.915 92.8348 178.443 87.4773 178.209C77.4503 177.817 75.1462 176.889 75.3275 173.336C75.4807 169.092 77.1352 168.882 102.712 169.745ZM149.154 128.283L153.026 128.467L154.758 131.978C157.031 136.73 160.901 139.888 166.52 141.725C168.985 142.605 171.34 143.588 171.647 143.917C171.954 144.246 172.094 146.269 172.013 148.498L171.82 152.369L168.304 154.11C163.547 156.393 160.378 160.27 158.529 165.892C157.643 168.359 156.654 170.716 156.325 171.024C155.995 171.331 153.971 171.475 151.742 171.4L147.87 171.216L146.138 167.705C143.865 162.953 139.995 159.795 134.376 157.958C131.911 157.078 129.556 156.095 129.249 155.766C128.942 155.437 128.802 153.414 128.934 151.24L129.076 147.314L132.973 145.32C137.899 142.777 140.569 139.468 142.309 133.948C143.03 131.635 143.959 129.436 144.348 128.971C144.791 128.454 146.925 128.208 149.154 128.283ZM198.562 134.2L220.318 134.935L219.927 145.759C219.729 152.711 220.04 157.344 220.737 158.642C224.434 165.142 224.725 168.87 223.893 194.873C223.187 217.373 222.907 220.71 221.423 222.095C219.279 224.094 217.581 224.037 215.688 222.007C214.512 220.746 214.215 218.664 214.39 212.348C214.444 207.888 214.319 204.005 213.961 203.621C213.296 202.908 210.273 202.753 209.503 203.471C209.229 203.727 208.726 208.81 208.406 214.749C208.085 220.688 207.473 225.874 206.978 226.335C205.384 227.822 200.836 227.243 199.891 225.458C199.497 224.595 199.315 219.33 199.463 213.757C199.707 205.531 199.516 203.453 198.372 202.776C197.538 202.323 196.264 202.28 195.506 202.68C194.265 203.222 193.909 205.707 193.514 215.203C193.051 225.068 192.704 227.341 191.329 228.622C189.35 230.468 187.283 230.345 185.441 228.371C184.469 227.328 184.164 224.024 184.485 215.11C184.668 208.582 184.552 202.947 184.245 202.618C183.529 201.85 180.558 201.75 179.733 202.519C179.403 202.827 178.971 207.434 178.674 212.736C178.259 222.763 177.326 225.069 173.772 224.895C169.527 224.752 169.321 223.098 170.244 197.524C170.782 184.102 170.869 172.843 170.511 172.459C170.153 172.075 168.038 171.791 165.806 171.822C163.522 171.798 161.51 171.624 161.305 171.404C161.1 171.185 161.598 169.183 162.476 166.928C164.244 162.101 167.774 158.501 172.355 156.69L175.479 155.521L175.814 144.748C176.08 138.86 176.366 133.876 176.531 133.722C176.696 133.569 186.57 133.796 198.562 134.2Z" fill="white"/>
<path d="M74.0776 78.4155C73.7094 79.7843 73.0683 91.6623 72.6011 104.609C71.8418 128.595 72.3038 134.932 75.5365 141.044C76.7769 143.477 76.9957 146.246 76.6421 154.575C76.3333 164.605 76.208 165.132 73.8951 167.391C71.0874 170.112 70.4265 173.702 72.1631 177.107C72.9112 178.461 72.9317 179.365 72.3346 179.716C69.4118 181.211 67.3738 183.214 66.6016 185.473C65.4255 188.62 66.8642 192.919 69.6057 194.977C71.5212 196.37 71.5135 196.582 70.1161 198.5C69.225 199.639 68.5666 201.688 68.5718 203.017C68.5195 205.937 71.2906 210.121 73.7558 211.001C75.1751 211.421 75.3247 211.691 74.61 212.358C73.0157 213.845 72.0211 217.848 72.7309 220.263C73.5277 223.212 75.4202 225.241 78.2 226.238C79.407 226.651 91.71 227.278 105.51 227.638C130.772 228.384 135.036 227.997 141.691 224.663C143.962 223.57 147.212 223.308 154.96 223.57C164.829 223.903 165.407 224.082 167.717 226.338C170.589 229.197 174.182 229.744 177.537 228.051C178.892 227.299 179.796 227.277 180.146 227.873C181.635 230.792 183.634 232.825 185.89 233.592C189.036 234.76 193.338 233.312 195.403 230.566C196.801 228.648 197.013 228.655 198.928 230.048C200.065 230.936 202.113 231.589 203.442 231.581C206.311 231.572 210.554 228.846 211.381 226.537C211.859 225.065 212.177 225.076 214.623 226.487C219.15 229.137 224.914 226.941 226.689 221.901C227.105 220.693 227.761 208.39 228.153 194.591C228.958 169.332 228.581 165.069 225.261 158.423C224.174 156.155 223.919 152.906 224.199 145.159C224.555 135.29 224.735 134.712 226.997 132.398C229.864 129.52 230.411 126.138 228.686 122.415C227.752 120.311 227.819 119.942 229.107 119.56C235.277 117.909 236.62 108.658 231.29 104.706C229.375 103.313 229.383 103.101 230.78 101.183C231.671 100.044 232.329 97.9945 232.324 96.6662C232.377 93.7462 229.605 89.5622 227.14 88.6821C225.721 88.2623 225.571 87.9917 226.286 87.3252C227.88 85.8384 228.875 81.8346 228.165 79.4201C227.368 76.4714 225.476 74.4419 222.696 73.445C221.489 73.0324 209.186 72.4046 195.386 72.045C170.124 71.2985 165.86 71.6858 159.205 75.0204C156.934 76.1125 153.684 76.3747 145.936 76.1131C136.067 75.78 135.489 75.6011 133.179 73.3451C130.307 70.4857 126.714 69.9394 123.359 71.6324C122.004 72.3835 121.1 72.4061 120.75 71.8099C117.284 64.7869 109.626 63.5191 105.434 69.2742C104.04 71.0865 103.824 71.1855 102.648 69.9239C99.5279 66.5781 92.0813 68.2923 89.7941 72.7837C88.9312 74.6139 88.7189 74.6067 86.2217 73.1412C81.4867 70.3783 75.4952 72.9916 74.0776 78.4155ZM82.5023 76.0968C83.0879 76.0635 84.3385 76.7432 85.1568 77.6208C86.3844 78.9372 86.63 80.9642 86.5064 87.3348C86.4517 91.7953 86.5772 95.6776 86.9353 96.0615C87.6002 96.7746 90.6229 96.9297 91.3926 96.212C91.6675 95.9557 92.1696 90.8727 92.4902 84.9337C92.8108 78.9947 93.4229 73.8093 93.8627 73.3991C95.3472 72.0149 98.9516 72.2428 100.435 73.8335C101.56 75.0402 101.787 77.5978 101.492 85.7688C101.189 94.1521 101.38 96.2304 102.524 96.9065C103.358 97.3596 104.632 97.4026 105.39 97.0032C106.631 96.4608 106.987 93.976 107.382 84.4802C107.841 74.721 108.192 72.3423 109.512 71.1118C111.601 69.1637 113.299 69.221 115.243 71.3053C116.521 72.6765 116.704 74.967 116.407 84.6786C116.279 91.1554 116.344 96.7355 116.651 97.0646C117.367 97.8325 120.338 97.9328 121.163 97.1638C121.493 96.8562 121.925 92.249 122.222 86.9467C122.637 76.9204 123.398 74.9805 127.065 74.9449C131.373 74.8247 131.579 76.4785 130.652 102.159C130.169 115.53 130.027 126.84 130.385 127.224C130.743 127.608 132.858 127.892 135.09 127.861C137.374 127.885 139.387 128.059 139.591 128.279C139.796 128.498 139.298 130.5 138.42 132.755C136.652 137.582 133.122 141.182 128.541 142.993L125.417 144.162L125.019 155.199L124.621 166.235L102.601 165.438L80.5783 164.748L80.9139 153.975C81.1921 144.794 80.9541 142.555 79.3748 139.208C78.3352 137.101 77.1727 133.981 76.8056 132.375C76.0357 128.683 77.397 80.6525 78.3738 78.6136C79.1191 77.0982 80.4233 76.2923 82.5023 76.0968ZM146.42 80.3794C155.283 80.6254 157.15 80.4228 161.307 78.5976C163.951 77.465 167.872 76.2693 170.061 75.9713C172.25 75.6733 184.785 75.7777 197.838 76.2183C216.674 76.9072 221.918 77.3499 222.992 78.5017C224.833 80.4763 224.756 82.5987 222.832 84.393C221.513 85.6235 219.485 85.8738 213.113 85.7649C208.652 85.7206 204.769 85.8551 204.384 86.214C203.67 86.8805 203.507 89.903 204.223 90.6709C204.479 90.9452 209.562 91.4355 215.501 91.7422C221.44 92.049 226.625 92.649 227.086 93.1426C228.569 94.7333 227.98 99.282 226.192 100.231C225.328 100.627 220.061 100.821 214.488 100.686C206.261 100.461 204.182 100.657 203.503 101.803C203.048 102.637 203.002 103.911 203.4 104.668C203.939 105.908 206.424 106.257 215.92 106.631C225.68 107.067 228.058 107.413 229.286 108.729C231.229 110.813 231.168 112.511 229.079 114.459C227.704 115.741 225.413 115.929 215.701 115.655C209.172 115.487 203.642 115.619 203.312 115.927C202.542 116.645 202.435 119.616 203.202 120.439C203.509 120.768 208.116 121.189 213.419 121.474C223.446 121.866 225.75 122.794 225.569 126.347C225.415 130.591 223.761 130.801 198.184 129.938C184.761 129.432 173.5 129.37 173.226 129.627C172.896 129.934 172.552 132.101 172.523 134.384C172.493 136.667 172.259 138.731 172.04 138.936C171.82 139.141 169.819 138.649 167.566 137.776C162.741 136.019 159.149 132.498 157.349 127.922L156.186 124.802L145.149 124.429L134.112 124.056L134.897 102.302C135.33 90.3109 135.792 80.4456 135.957 80.2918C136.067 80.1893 140.795 80.1895 146.42 80.3794ZM102.712 169.745C116.084 170.197 127.396 170.313 127.671 170.056C128 169.749 128.344 167.582 128.373 165.299C128.403 163.016 128.637 160.952 128.856 160.747C129.076 160.542 131.077 161.034 133.33 161.907C138.155 163.664 141.747 167.185 143.547 171.761L144.71 174.881L155.747 175.254L166.784 175.627L165.936 197.644L165.195 219.665L154.421 219.355C145.184 219.149 142.999 219.341 139.699 220.983C137.538 221.972 133.99 223.128 131.849 223.587C129.656 223.991 116.96 223.934 103.588 223.483C84.3282 222.779 79.0334 222.282 77.9593 221.13C76.063 219.207 76.1396 217.084 78.0638 215.29C79.3833 214.06 81.4111 213.809 87.7826 213.918C92.2437 213.962 96.1269 213.828 96.5117 213.469C97.2264 212.802 97.3886 209.78 96.6726 209.012C96.4168 208.738 91.3342 208.247 85.395 207.941C79.4557 207.634 74.2709 207.034 73.8617 206.595C72.4807 205.114 72.717 201.51 74.3114 200.023C75.5209 198.895 78.0794 198.663 86.2511 198.939C94.6351 199.222 96.7141 199.026 97.393 197.88C97.8482 197.046 97.8941 195.772 97.4964 195.015C96.9568 193.775 94.4724 193.426 84.976 193.052C75.2162 192.616 72.8379 192.27 71.6103 190.954C69.6667 188.87 69.728 187.172 71.8171 185.224C73.1916 183.942 75.4829 183.754 85.1953 184.028C91.6729 184.141 97.2541 184.064 97.584 183.756C98.3536 183.038 98.4609 180.067 97.6936 179.244C97.3867 178.915 92.8348 178.443 87.4773 178.209C77.4503 177.817 75.1462 176.889 75.3275 173.336C75.4807 169.092 77.1352 168.882 102.712 169.745ZM149.154 128.283L153.026 128.467L154.758 131.978C157.031 136.73 160.901 139.888 166.52 141.725C168.985 142.605 171.34 143.588 171.647 143.917C171.954 144.246 172.094 146.269 172.013 148.498L171.82 152.369L168.304 154.11C163.547 156.393 160.378 160.27 158.529 165.892C157.643 168.359 156.654 170.716 156.325 171.024C155.995 171.331 153.971 171.475 151.742 171.4L147.87 171.216L146.138 167.705C143.865 162.953 139.995 159.795 134.376 157.958C131.911 157.078 129.556 156.095 129.249 155.766C128.942 155.437 128.802 153.414 128.934 151.24L129.076 147.314L132.973 145.32C137.899 142.777 140.569 139.468 142.309 133.948C143.03 131.635 143.959 129.436 144.348 128.971C144.791 128.454 146.925 128.208 149.154 128.283ZM198.562 134.2L220.318 134.935L219.927 145.759C219.729 152.711 220.04 157.344 220.737 158.642C224.434 165.142 224.725 168.87 223.893 194.873C223.187 217.373 222.907 220.71 221.423 222.095C219.279 224.094 217.581 224.037 215.688 222.007C214.512 220.746 214.215 218.664 214.39 212.348C214.444 207.888 214.319 204.005 213.961 203.621C213.296 202.908 210.273 202.753 209.503 203.471C209.229 203.727 208.726 208.81 208.406 214.749C208.085 220.688 207.473 225.874 206.978 226.335C205.384 227.822 200.836 227.243 199.891 225.458C199.497 224.595 199.315 219.33 199.463 213.757C199.707 205.531 199.516 203.453 198.372 202.776C197.538 202.323 196.264 202.28 195.506 202.68C194.265 203.222 193.909 205.707 193.514 215.203C193.051 225.068 192.704 227.341 191.329 228.622C189.35 230.468 187.283 230.345 185.441 228.371C184.469 227.328 184.164 224.024 184.485 215.11C184.668 208.582 184.552 202.947 184.245 202.618C183.529 201.85 180.558 201.75 179.733 202.519C179.403 202.827 178.971 207.434 178.674 212.736C178.259 222.763 177.326 225.069 173.772 224.895C169.527 224.752 169.321 223.098 170.244 197.524C170.782 184.102 170.869 172.843 170.511 172.459C170.153 172.075 168.038 171.791 165.806 171.822C163.522 171.798 161.51 171.624 161.305 171.404C161.1 171.185 161.598 169.183 162.476 166.928C164.244 162.101 167.774 158.501 172.355 156.69L175.479 155.521L175.814 144.748C176.08 138.86 176.366 133.876 176.531 133.722C176.696 133.569 186.57 133.796 198.562 134.2Z" fill="white"/>
</svg>
