<svg width="26" height="26" viewBox="0 0 26 26" fill="none" xmlns="http://www.w3.org/2000/svg">
<path d="M20.4327 11.2607H5.75032C4.59191 11.2607 3.65283 12.1998 3.65283 13.3582V20.6994C3.65283 21.8579 4.59191 22.7969 5.75032 22.7969H20.4327C21.5912 22.7969 22.5302 21.8579 22.5302 20.6994V13.3582C22.5302 12.1998 21.5912 11.2607 20.4327 11.2607Z" stroke="#12121D" stroke-width="1.57312" stroke-linecap="round" stroke-linejoin="round"/>
<path d="M7.84766 11.261V7.06599C7.84766 5.67527 8.40012 4.3415 9.38351 3.35812C10.3669 2.37473 11.7007 1.82227 13.0914 1.82227C14.4821 1.82227 15.8159 2.37473 16.7993 3.35812C17.7826 4.3415 18.3351 5.67527 18.3351 7.06599V11.261" stroke="#12121D" stroke-width="1.57312" stroke-linecap="round" stroke-linejoin="round"/>
</svg>
