<svg width="35" height="29" viewBox="0 0 35 29" fill="none" xmlns="http://www.w3.org/2000/svg">
<g clip-path="url(#clip0_108_2830)">
<path fill-rule="evenodd" clip-rule="evenodd" d="M32.8125 25.375C32.8125 26.3719 31.8325 27.1875 30.625 27.1875H4.375C3.1675 27.1875 2.1875 26.3719 2.1875 25.375V3.625C2.1875 2.6245 3.1675 1.8125 4.375 1.8125H30.625C31.8325 1.8125 32.8125 2.6245 32.8125 3.625V25.375ZM30.625 0H4.375C1.95891 0 0 1.62309 0 3.625V25.375C0 27.3778 1.95891 29 4.375 29H30.625C33.0411 29 35 27.3778 35 25.375V3.625C35 1.62309 33.0411 0 30.625 0ZM25.7414 13.7034L19.5552 8.57768C19.1275 8.22334 18.4352 8.22334 18.0086 8.57768C17.5809 8.93021 17.5809 9.50478 18.0086 9.85912L22.5159 13.5938H10.9375C10.3327 13.5938 9.84375 13.9988 9.84375 14.5C9.84375 15.0002 10.3327 15.4062 10.9375 15.4062H22.5159L18.0086 19.14C17.5809 19.4934 17.5809 20.0644 18.0086 20.4269C18.4352 20.7803 19.1275 20.7803 19.5552 20.4269L25.7414 15.2966C26.0039 15.0791 26.086 14.7818 26.0258 14.5C26.086 14.2182 26.0039 13.9209 25.7414 13.7034Z" fill="black"/>
</g>
<defs>
<clipPath id="clip0_108_2830">
<rect width="35" height="29" fill="white"/>
</clipPath>
</defs>
</svg>
